<?xml version="1.0" encoding="utf-8"?>
<!-- Generator: Adobe Illustrator 24.2.1, SVG Export Plug-In . SVG Version: 6.00 Build 0)  -->
<svg version="1.0" id="Logo" xmlns="http://www.w3.org/2000/svg" xmlns:xlink="http://www.w3.org/1999/xlink" x="0px" y="0px"
	 viewBox="0 0 231.18 124.83" style="enable-background:new 0 0 231.18 124.83;" xml:space="preserve">
<style type="text/css">
	.st0{fill:#006C66;}
</style>
<g>
	<g>
		<path class="st0" d="M189.25,10.24c-17.35,0-31.46,14.11-31.46,31.46c0,17.35,14.11,31.46,31.46,31.46
			c17.35,0,31.46-14.11,31.46-31.46C220.72,24.35,206.6,10.24,189.25,10.24z M189.25,72.29c-16.87,0-30.58-13.72-30.58-30.59
			c0-16.86,13.72-30.58,30.58-30.58c16.86,0,30.58,13.72,30.58,30.58C219.84,58.57,206.12,72.29,189.25,72.29z"/>
		<path class="st0" d="M207.72,39.3c-0.44-0.91-0.14-1.51-0.27-2.17c-0.1-0.49-0.83-2.11-1.29-3.23c-0.22-0.53,1.13-0.4,0.13-2.3
			c-0.03-0.06,1.38-0.58-0.03-1.65c-0.79-0.6-1.35-1.34-1.78-2c-0.06-0.09-0.12-0.27,0.01-0.39c0.8-0.71,0.81-1.73-0.05-2.25
			c-0.63-0.38-1.34,0.01-2,0.43c-0.22,0.14-0.33,0.23-0.55,0.14c-0.12-0.05-0.34-0.2-0.54-0.34c0.81-0.79,0.97-1.57,0.91-1.69
			c-0.04-0.09-1.38-0.39-3.04,0.3c-0.04-0.02-0.08-0.04-0.12-0.06c0.68-1.18,0.3-2.01,0.25-2.07c0,0,0,0,0,0
			c1.24-1.73,2.48-2.89,3.69-4c0,0,0.03-0.03,0.03-0.03c0.08-0.08,0.11-0.17-0.04-0.26c-0.13-0.08-0.16-0.1-0.32-0.18
			c-4.08-2.27-8.74-3.47-13.44-3.47c-15.25,0-27.65,12.41-27.65,27.65c0,8.83,4.48,17.36,11.81,22.65c0.49,0.35,0.83,0.49,0.83,0.49
			c0.12,0.04,0.25,0.04,0.32-0.06l0.11-0.14c0.07-0.09,0.1-0.18,0.1-0.25c0-0.2-0.29-0.38-0.63-0.89c-0.99-1.47-1.43-3.14-1.43-4.54
			c0-1.53,0.47-2.92,1.36-4.08c1.1,1.15,3.51,3.26,3.46,5.19c-0.06,2.16-2.08,2.05-1.64,3.67c0.27,1.02,1.03,0.6,1.17,1.37
			c0.23,1.34,2.02,2.19,2.81,2.07c0.19-0.03,0.35,0.13,0.73,0.51c0.53,0.54,1.85,0.47,2.43,0.36c0.55-0.1,1.25,0.41,2.41,0.28
			c1.45-0.16,1.82-0.27,2.44-0.28c1.05-0.02,6.75-0.1,10.81,0.54c0.7,0.11,0.92-0.21,0.61-0.75c-1.47-2.56-1.67-4.73-0.83-7.47
			c1.5,0.1,3.65,0.51,6.49-1.2c1.01-0.6,1.57-1.89,1.52-2.85c-0.03-0.62-0.3-1.41-0.14-2.02c0.22-0.82,0.38-0.8,0.61-0.96
			c1.08-0.76,0.3-1.37,0.13-1.43c0.33-0.13,0.69-0.84,0.31-1.37c-0.19-0.21-0.78-1.86-0.1-2.21c0.73-0.37,1.57-0.53,2.42-0.9
			c0.58-0.24,1.04-0.92,0.71-1.82C210,44.51,207.78,39.44,207.72,39.3z M177.19,63.92c-0.21,0.04-0.89,0.07-0.74-0.82
			c0.09-0.55,0.69-0.78,1-0.47C177.38,63.05,177.23,63.47,177.19,63.92z M203.25,26.17c0.36-0.23,0.74-0.32,0.97-0.1
			c0.79,0.78-0.85,1.21-0.51,1.81c0.56,0.98,1.45,1.92,2.24,2.52c0.37,0.28,0.42,0.92-0.99,1.22c-1.42,0.29-7.08,1.79-10.07,4.95
			c-3.74,3.96-6.12,9.09-6.44,8.39c-0.33-0.71-1.08-0.83-0.96-1.03C192.86,34.68,201.27,27.42,203.25,26.17z M205.72,32.67
			c-0.31,0.88-2.75,1.67-2.63,1.05c0.05-0.28,0.01-0.65,0.19-0.68c0.27-0.05,1.04-0.32,2.24-0.62
			C205.63,32.38,205.79,32.45,205.72,32.67z M199.53,34.27c-0.06-0.36,2.56-1.24,2.65-0.98c0.17,0.48-0.54,1.77-1.42,2.1
			c-1,0.37-1.41,0.26-1.37,0.12C199.46,35.24,199.59,34.6,199.53,34.27z M193.45,47.94c-1.21,0.74-1.86-0.67-2.03-0.92
			c-0.07-0.11-0.27-0.42-0.16-0.95c0.08-0.42,0.15-0.99-0.12-2.79c-0.12-0.79,1.52-2.76,1.89-3.1c0.38-0.36,0.94,0.18,0.98,0.76
			c0.07,1.1-0.55,1.68-1.18,2.15c-0.78,0.58-0.92,1.33-0.78,1.53c0.06,0.08,0.41,0.08,0.56-0.25c0.47-0.99,1.8-1.49,2.01-2.02
			c0.33-0.81,0.09-1.34,0.06-1.68c-0.03-0.3,0.26-0.37,0.48-0.34c0.28,0.04,0.41,0.43,0.55,0.8c0.86,2.25-1.31,3.61-1.66,4.14
			C193.89,45.54,194.39,47.36,193.45,47.94z M195.27,39.22c-0.65,0.44-1.58-0.16-1.39-0.42c1.2-1.71,2.8-2.9,3.44-3.3
			c1.03-0.64,1.14-0.68,1.19-0.32c0.03,0.22,0.04,1.34-0.79,2.25c-0.69,0.75-1.38,0.69-1.73,0.77
			C195.75,38.24,195.76,38.88,195.27,39.22z M189.5,46.9c-0.3-0.07-0.41-0.64-0.35-0.87c0.13-0.51,0.92-1.56,1.2-1.93
			c0.07-0.09,0.21-0.01,0.23,0.1C190.75,45.42,190.58,47.13,189.5,46.9z M199.14,24.68c1.08-0.49,2.13-0.5,2.24-0.48
			c0.25,0.03-0.55,1.44-1.96,2.05c-1.46,0.63-2.55,0.74-2.67,0.68C196.56,26.83,197.98,25.2,199.14,24.68z M174.18,48.13
			c-0.43-0.5-0.83-0.77-0.88-0.74c-0.12,0.08-0.82,1.28-1.06,2.68c-1.36-2.61-2.12-5.24-2.24-8.37
			c-0.42-10.61,8.47-19.15,19.31-19.11c2.47,0.01,4.51,0.47,6.73,1.37c-0.5,0.62-0.86,1.37-1.1,1.99c-0.01-0.58-0.16-1.02-0.12-1.38
			c0.03-0.22-1.54,0.27-2.92,2.47c-0.32,0.51-0.52,1.08-0.65,1.6c-0.03-0.83-0.22-1.47-0.28-1.46c-0.14,0.04-1.73,0.69-2.55,2.63
			c-0.14,0.34-0.25,0.69-0.33,1.03c-0.07-0.59-0.22-0.98-0.27-0.98c-0.1,0-1.76,0.69-2.58,2.67c-0.19,0.46-0.29,0.93-0.34,1.37
			c-0.15-0.69-0.41-1.12-0.5-1.01c-0.57,0.73-1.69,1.05-2.29,2.88c-0.14,0.43-0.2,0.86-0.2,1.26c-0.25-0.62-0.59-0.98-0.67-0.96
			c-0.16,0.03-1.85,1.64-2.1,3.26c-0.1,0.64-0.05,1.23,0.05,1.73c-0.32-0.52-0.75-0.9-0.93-1.44c-0.27,0.14-1.7,1.49-1.74,3.21
			c-0.02,0.67,0.08,1.3,0.22,1.83c-0.48-0.86-1.15-1.27-1.23-1.22c-0.12,0.08-1.19,1.23-1.44,3.31
			C174,47.24,174.06,47.71,174.18,48.13z M196.38,24.26c0.85-1.01,2.3-1.82,2.46-1.72c0.17,0.1-0.24,1.66-1.18,2.58
			c-0.94,0.93-2.4,1.83-2.57,1.82C194.92,26.93,195.61,25.17,196.38,24.26z M193.61,28.16c-0.83,0.67-1.2,1.12-1.69,1.9
			c-0.16,0.27-0.57-1.49,0.51-3.18c0.66-1.03,1.97-1.96,1.94-1.84C194.28,25.46,195.01,27.02,193.61,28.16z M190.57,30.41
			c-1.01,1.51-1.07,0.99-2.18,2.47c-0.06,0.08-0.08-1.93,0.31-2.81c0.62-1.4,1.71-2.22,1.87-2.25
			C190.73,27.8,191.13,29.58,190.57,30.41z M187.26,33.43c-0.52,0.91-1,0.7-1.86,1.99c-0.1,0.14-0.33-1.07,0.19-2.7
			c0.4-1.26,1.64-2.04,1.77-2.08C187.56,30.6,187.88,32.35,187.26,33.43z M184.16,36.64c-0.53,1.16-0.87,1.19-1.49,1.91
			c-0.11,0.12-0.57-1.1-0.12-2.64c0.36-1.23,1.18-1.68,1.58-2.1C184.29,33.65,184.73,35.41,184.16,36.64z M181.65,38.62
			c0,0.35-0.04,0.55-0.14,0.9c-0.38,1.3-1.14,1.85-1.56,2.44c-0.17-0.38-0.47-0.93-0.48-1.76c0-1.57,0.95-2.91,1.55-3.34
			C181.25,36.85,181.65,37.81,181.65,38.62z M179.09,42.45c-0.03,1.83-1.18,2.9-1.52,3.24c-0.21-0.36-0.63-1.3-0.66-2.27
			c-0.06-1.89,0.72-2.55,1.06-2.92C178.14,41.04,179.11,41.47,179.09,42.45z M175.47,44.33c0.53,0.27,1.16,1.03,1.22,2.45
			c0.06,1.43-0.96,2.63-1.36,2.82c-0.28-1.09-0.81-1.32-0.8-2.4C174.55,46.03,175.15,44.73,175.47,44.33z M177.65,48.09
			c1.37-0.6,2.87-0.5,2.93-0.45c0.06,0.06-0.44,1.75-1.77,2.46c-1.33,0.71-2.84,0.78-2.97,0.61
			C175.76,50.62,176.28,48.69,177.65,48.09z M177.55,47.08c0.09-0.45,0.9-1.96,2.12-2.51h0c1.23-0.55,2.65-0.51,2.81-0.44
			c0.16,0.07-0.51,1.67-1.74,2.26C179.35,47.06,178.8,46.67,177.55,47.08z M179.6,43.54c0.06-0.14,1.06-1.93,2.23-2.48
			c1.16-0.54,2.57-0.43,2.66-0.4c0.1,0.03-0.53,1.62-1.86,2.28C181.32,43.59,179.55,43.68,179.6,43.54z M182.28,39.96
			c-0.1-0.07,1.32-1.93,2.5-2.47c1.04-0.48,2.4-0.38,2.51-0.3c0.11,0.08-0.55,1.64-1.92,2.24
			C184.06,39.99,182.37,40.03,182.28,39.96z M185.48,36.42c-0.08-0.04,1-1.88,2.22-2.35c1.16-0.45,2.31-0.04,2.66-0.02
			c0.28,0.02-0.4,1.35-1.99,1.94C187.05,36.48,185.69,36.52,185.48,36.42z M189.08,33.01c0.02-0.09,1.21-1.76,2.44-2.18
			c1.17-0.4,2.59-0.13,2.74-0.07c0.15,0.06-0.83,1.52-2.32,1.97C190.59,33.13,189.06,33.09,189.08,33.01z M192.71,30.05
			c-0.16-0.11,1.28-1.71,2.45-2.16c1.14-0.43,2.38-0.35,2.48-0.3c0.1,0.06-0.75,1.45-2.13,2.01
			C194.21,30.13,192.87,30.16,192.71,30.05z M172.84,62.78c-6.48-5.16-10.36-12.95-10.36-21.08c0-14.76,12.01-26.77,26.78-26.77
			c4.31,0,8.63,1.08,12.42,3.05c0.08,0.04,0.09,0.14,0.02,0.2c-1.11,0.97-2.66,2.88-3.05,3.41c-2.95-1.38-6.1-2.09-9.39-2.09
			c-12.24,0-22.19,9.95-22.19,22.19c0,5.46,1.85,10.44,5.34,14.44c-0.2,0.46-0.56,1.48-0.56,2.83
			C171.84,60.08,172.05,61.36,172.84,62.78z M172.88,55.33c0,0-0.01,0.01-0.01,0.01c-3.22-3.8-4.92-8.5-4.92-13.64
			c0-11.75,9.56-21.31,21.31-21.31c3.1,0,6.08,0.65,8.87,1.93c-0.37,0.17-0.79,0.42-1.22,0.78c-2.45-1.04-4.92-1.53-7.64-1.53
			c-11.1,0-20.14,9.03-20.14,20.13c0,4.82,1.5,9.05,4.45,12.6C173.39,54.56,173.15,54.92,172.88,55.33z M173.94,53.66
			c-0.39-0.37-1.23-1.3-1.31-2.5c0-0.06-0.01-0.12-0.01-0.17c0-1.29,0.57-2.56,0.71-2.7c0.14-0.14,1.6,0.99,1.62,2.62
			C174.97,52.3,174.32,53.11,173.94,53.66z M176.34,51.5c1.16-0.55,2.88-0.42,2.79-0.34c-0.09,0.08-0.55,1.75-1.85,2.41
			c-1.3,0.65-2.16,0.48-2.63,0.39C175.35,53.19,175.2,52.05,176.34,51.5z M177.91,65.42c-0.2-0.79-0.12-1.88,0.15-2.17
			c0.52-0.25,1.47-0.35,1.49-0.05c0.03,0.48-0.33,1.63,0.09,3.06C179.54,66.49,178.24,66.39,177.91,65.42z M177.99,62.11
			c-0.1-0.59,0.47-1.17,0.46-2.46c-0.01-1.59-1.98-3.77-3.31-5.18c0.62,0,1.44-0.15,2.36-0.57c1.98-0.92,2.37-3.02,2.42-3.1
			c0.03-0.04-0.44-0.13-1.12-0.14c0.07-0.04,0.15-0.07,0.22-0.11c1.94-1.04,2.44-3.28,2.35-3.33c-0.04-0.02-0.52-0.1-1.19-0.08
			c0.19-0.06,0.38-0.13,0.59-0.21c2.05-0.81,2.62-3.09,2.55-3.17c-0.03-0.03-0.44-0.11-1.04-0.13c0.18-0.07,0.37-0.15,0.56-0.25
			c1.87-0.93,2.52-3.02,2.42-3.09c-0.04-0.03-0.42-0.1-0.97-0.11c0.42-0.09,0.87-0.23,1.35-0.44c2-0.88,2.65-2.79,2.56-2.88
			c-0.04-0.03-0.38-0.13-0.89-0.17c0.4-0.09,0.84-0.21,1.3-0.37c1.98-0.68,2.78-2.57,2.66-2.58c-0.27-0.02-0.64-0.15-1.11-0.24
			c0.54-0.03,1.17-0.13,1.96-0.4c2.14-0.72,2.9-2.01,2.94-2.57c0-0.04-0.26-0.15-0.67-0.24c0.49-0.09,0.98-0.21,1.39-0.38
			c2-0.81,2.83-2.77,2.9-2.94c0.36-0.12,0.75-0.27,1.16-0.45c0.21-0.09,0.4-0.19,0.58-0.3c0.1,0.07,0.25,0.19,0.49,0.33
			c0.3,0.19,0.41,0.24,0.26,0.37c-6.8,5.8-11.9,13.11-14.12,16.67c-0.06,0.1-0.18,0.08-0.37,0.07c-2.38-0.16-3.73,2.68-2.67,5.34
			c-0.14,0.54-1.27,1.58-1.35,1.66c-0.09,0.08-0.31,0.41,0.07,0.37c0.56-0.05,1.27-0.94,1.61-1.34c0.14,0.18,0.67,0.61,0.41,0.86
			c-2.02,1.99-4.03,3.06-4.19,3.13c-0.76,0.37,1.26,0.63,4.71-2.49c0.2-0.18,0.44,0.72,0.75,1.11c-0.59,1.95,0.87,5.73,0.64,6.91
			c-0.04,0.21-0.16,0.79-0.85,0.81c-3.42,0.07-3.75-0.09-5.49,0.43c-0.81,0.24-0.6,0.77-0.01,0.61c0.67-0.18,1.37-0.45,5.06-0.22
			c0.9,0.06,1.94-0.18,1.94-1.71c0.01-1.38-1.09-5.51-0.72-6.07c0.49,0.37,0.85,0.38,1.03,0.42c-0.05,1.35,2.12,5.69,1.15,8.09
			c-0.36,0.89-1.93,0.82-4.62,0.56C179.57,61.67,178.09,62.66,177.99,62.11z M188.51,65.07c-1.78,0.62-2.48-1.47-2.19-1.91
			c0.18-0.27,1.3,0.31,2.18-0.26C189.17,62.46,189.55,64.71,188.51,65.07z M180.43,66.37c-0.25-1.1-0.35-3.01,0.11-3.44
			c0.09-0.08,1.46-0.28,1.44,0.03c-0.11,1.32-0.64,2.79,0.36,4.25C182.71,67.76,180.76,67.85,180.43,66.37z M183.83,67.63
			c-0.48-0.12-1.8-2.22-0.72-4.73c0.11-0.27,1.76-0.1,2.04-0.02c0.28,0.08-0.23,2.05,2.04,2.93
			C187.41,65.9,187.16,68.46,183.83,67.63z M197.98,60.62c-0.77,2.65-1.15,3.71,0,6.58c0.15,0.38,0.27,0.67-0.07,0.61
			c-2.31-0.4-2.81-0.78-10.08-0.16c-0.52,0.04,0.17-1.01,0.09-1.73c0.66-0.09,1.72-0.39,1.95-1.47c0.27-1.31-0.64-2.27-0.54-2.46
			c1.03-2.01-0.07-4.24-0.94-7.97c-0.08-0.35,0.12-0.5,0.27-0.34c4.67,5.05,7.65,6.06,9.25,6.54
			C198.07,60.27,198.04,60.45,197.98,60.62z M209.93,46.82c-0.98,0.86-2.48,0.93-3.08,1.49c-0.32,0.29-0.46,0.74-0.12,1.55
			c0.2,0.47,0.33,0.52-0.34,0.7c-1.09,0.29-1.24,1.72-2.62,1.46c-0.55-0.1-0.16,0.25,0.04,0.27c0.79,0.07,1.11-0.15,1.38-0.41
			c0.28-0.26,0.65-0.73,1.07-0.89c0.44-0.17,0.88-0.15,0.89,0.17c0.01,0.25-0.55,0.65-0.78,0.76c0.28,0.15,1.15,0.59,0.41,1.09
			c-0.58,0.39-1.37-0.15-1.49-0.22c-0.17-0.1-0.5-0.05-0.39,0.08c0.43,0.52,1.58,0.39,1.37,0.66c-1.06,1.42-0.2,2.26-0.52,3.69
			c-0.33,1.45-2.31,2.25-3.84,2.52c-5.2,0.94-10.26-3.49-13.23-6.82c0.27-0.63,0.24-1.46-0.04-1.17c-0.26,0.28-0.21,0.74-0.83,0.9
			c-1.19,0.3-1.71-1.77-2.08-2.13c-1.45-1.42-2.02-3.43-1.16-5.18c0.87-1.77,2.69-1.42,3.42-0.34c0.9,1.33,0.48,2.09,1,2.49
			c0.72,0.56,1.44,0.06,1.64,0.01c0.55-0.15,0.51,1.3,2.38,1.23c2.01-0.07,1.78-3.2,2.07-3.48c2.58-2.52,1.26-4.76,0.79-5.28
			c-0.13-0.14,0.29-1.06,0.44-1.1c1.52-0.33,2.37-1.3,2.83-2.33c0,0,2.52-0.04,3.41-1.86c0.24-0.48,0.98,0.47,2.66-0.85
			c0.19-0.15,0.37-0.08,0.44,0.1c1.08,2.65,1.53,3.38,1.45,4.73c-0.06,0.98,2.62,6.43,2.82,6.9
			C210.14,46.08,210.18,46.6,209.93,46.82z"/>
		<path class="st0" d="M203.87,37.22c-1.46,0.05-3.17,1.85-3.72,2.1c-0.58,0.26-0.38,0.43-0.04,0.3c0.73-0.27,1.77-1.38,3.2-1.9
			c1.13-0.41,1.06,0.52,1.49,0.47C205,38.17,204.72,37.19,203.87,37.22z"/>
		<path class="st0" d="M204.2,38.66c-0.12,0.03,0.13,0.65-0.51,0.69c-1.38,0.08-2.47,1.39-3.31,1.78c-0.84,0.39-1.01,0.38-1.14,0.42
			c-0.11,0.03-0.07,0.17,0.02,0.19c3.51,0.47,4.86,0.34,4.89,0.21c0.06-0.24-0.2-0.36-0.14-0.52c0.13-0.39,0.2-1.13,0.05-1.64
			c-0.06-0.24,0.52-0.08,0.52-0.4C204.58,39.21,204.41,38.61,204.2,38.66z M203.66,41.43c-0.07,0.27-1.63,0.15-2.49,0.07
			c-0.2-0.02-0.54-0.05,0.11-0.44c0.51-0.31,1.22-0.82,2.14-1c0.08-0.01,0.22,0.01,0.26,0.18
			C203.77,40.68,203.73,41.15,203.66,41.43z"/>
		<path class="st0" d="M208.25,46.43c-0.27,0-1.35,0.49-1.76,0.75c-0.23,0.15-1.33,0.83-1.26-0.25c0.03-0.38,0.27-1.31,0.27-1.56
			c-0.01-0.39-0.32-0.23-0.33-0.01c-0.01,0.54-0.12,0.95-0.23,1.58c-0.09,0.54,0.37,1.21,1.1,0.82c0.61-0.32,1.43-0.88,2.16-1.02
			C208.4,46.71,208.43,46.43,208.25,46.43z"/>
		<path class="st0" d="M187.91,50.27c-0.21-0.08-0.15,0.35-0.43,0.3c-0.37-0.06-0.06-0.39-0.54-0.9c-0.24-0.25-0.84-0.36-1.28-1.07
			c-0.7-1.12-0.1-3.61,0.92-3.26c0.57,0.2,0.47,1.52,0.3,2.42c-0.11,0.55,0.75,0.82,0.83,0.63c0.13-0.32-0.32-0.29-0.42-0.59
			c-0.16-0.45,1.05-2.27-0.53-2.8c-1.15-0.38-1.91,1.07-1.77,2.67c0.12,1.35,1.02,1.91,1.53,2.1c0.7,0.26,0.17,1.21,1.11,1.21
			C188.05,51,188.13,50.35,187.91,50.27z"/>
		<path class="st0" d="M197.13,20.25c0.05,0.02,0.1,0,0.14-0.04l1.95-2.47c0.05-0.06,0.03-0.16-0.05-0.19
			c-0.11-0.04-0.22-0.09-0.33-0.13c-0.05-0.02-0.11,0-0.14,0.04l-1.96,2.48c-0.05,0.07-0.02,0.16,0.06,0.19
			C196.91,20.17,197.02,20.21,197.13,20.25z"/>
		<path class="st0" d="M193.51,19.24c0.11,0.02,0.22,0.04,0.34,0.07c0.06,0.01,0.12-0.02,0.14-0.07l1.14-2.82
			c0.03-0.07-0.01-0.15-0.09-0.16c-0.13-0.03-0.25-0.05-0.38-0.08c-0.03-0.01-0.07,0.01-0.08,0.04c-0.14,0.36-0.94,2.33-1.16,2.87
			C193.39,19.15,193.44,19.23,193.51,19.24z"/>
		<path class="st0" d="M189.49,18.85c0.11,0,0.23,0,0.34,0.01c0.06,0,0.12-0.05,0.12-0.11l0.28-3c0.01-0.07-0.05-0.13-0.12-0.13
			c-0.11,0-0.23-0.01-0.34-0.01c-0.06,0-0.12,0.05-0.12,0.11l-0.28,3C189.37,18.79,189.42,18.85,189.49,18.85z"/>
		<path class="st0" d="M185.59,19.14c0.11-0.02,0.22-0.04,0.34-0.05c0.07-0.01,0.12-0.08,0.1-0.14l-0.57-2.96
			c-0.01-0.06-0.07-0.11-0.14-0.1c-0.11,0.02-0.23,0.03-0.34,0.05c-0.07,0.01-0.11,0.08-0.1,0.14l0.57,2.95
			C185.46,19.11,185.52,19.15,185.59,19.14z"/>
		<path class="st0" d="M181.59,20.05c0.03,0.05,0.09,0.08,0.15,0.06c0.11-0.04,0.22-0.07,0.32-0.11c0.07-0.02,0.1-0.1,0.07-0.17
			l-1.35-2.72c-0.03-0.06-0.09-0.08-0.15-0.06c-0.11,0.04-0.22,0.08-0.32,0.12c-0.07,0.02-0.1,0.1-0.07,0.17L181.59,20.05z"/>
		<path class="st0" d="M177.87,21.78c0.04,0.04,0.1,0.05,0.15,0.03c0.1-0.06,0.2-0.11,0.3-0.17c0.07-0.04,0.09-0.13,0.03-0.19
			l-2.02-2.31c-0.04-0.04-0.1-0.05-0.15-0.03c-0.1,0.06-0.2,0.12-0.3,0.18c-0.07,0.04-0.08,0.13-0.03,0.19L177.87,21.78z"/>
		<path class="st0" d="M174.4,24.22c0.05,0.03,0.11,0.03,0.15-0.01c0.09-0.08,0.18-0.15,0.27-0.23c0.06-0.05,0.06-0.15-0.01-0.19
			l-2.56-1.78c-0.05-0.03-0.11-0.03-0.15,0.01c-0.09,0.08-0.18,0.16-0.26,0.23c-0.06,0.05-0.05,0.15,0.01,0.19L174.4,24.22z"/>
		<path class="st0" d="M171.38,27.33c0.05,0.02,0.11,0,0.14-0.04c0.07-0.09,0.15-0.18,0.23-0.27c0.05-0.06,0.03-0.16-0.05-0.19
			l-2.94-1.15c-0.05-0.02-0.11,0-0.14,0.04c-0.07,0.09-0.14,0.19-0.22,0.28c-0.05,0.06-0.02,0.16,0.05,0.19L171.38,27.33z"/>
		<path class="st0" d="M165.82,30.55l3.15,0.44c0.05,0.01,0.1-0.02,0.12-0.06c0.06-0.11,0.11-0.21,0.17-0.32
			c0.04-0.07,0-0.17-0.09-0.18l-3.17-0.44c-0.05-0.01-0.1,0.02-0.13,0.07c-0.05,0.11-0.11,0.21-0.16,0.32
			C165.7,30.45,165.74,30.54,165.82,30.55z"/>
		<path class="st0" d="M164.1,35.33l3.21-0.31c0.05,0,0.09-0.04,0.1-0.09c0.04-0.12,0.07-0.23,0.11-0.35
			c0.03-0.08-0.04-0.17-0.13-0.16l-3.23,0.31c-0.05,0-0.09,0.04-0.11,0.09c-0.03,0.12-0.06,0.24-0.09,0.35
			C163.95,35.26,164.02,35.34,164.1,35.33z"/>
		<path class="st0" d="M166.54,39.15c0.01-0.12,0.03-0.25,0.04-0.37c0.01-0.09-0.07-0.16-0.16-0.13l-3.13,1.09
			c-0.05,0.02-0.08,0.06-0.08,0.11c-0.01,0.12-0.02,0.25-0.02,0.37c0,0.09,0.08,0.15,0.16,0.12l3.11-1.08
			C166.5,39.23,166.53,39.2,166.54,39.15z"/>
		<path class="st0" d="M166.46,43.43c-0.01-0.13-0.02-0.26-0.03-0.39c-0.01-0.09-0.11-0.15-0.19-0.1l-2.84,1.86
			c-0.04,0.03-0.06,0.07-0.05,0.12c0.02,0.13,0.03,0.25,0.05,0.37c0.01,0.09,0.11,0.13,0.19,0.08l2.81-1.85
			C166.44,43.51,166.46,43.47,166.46,43.43z"/>
		<path class="st0" d="M167.17,47.7c-0.03-0.13-0.07-0.26-0.1-0.39c-0.02-0.1-0.14-0.13-0.21-0.05l-2.31,2.54
			c-0.03,0.03-0.04,0.08-0.03,0.12c0.04,0.12,0.08,0.24,0.13,0.37c0.03,0.09,0.14,0.11,0.21,0.04l2.28-2.51
			C167.17,47.78,167.18,47.74,167.17,47.7z"/>
		<path class="st0" d="M168.35,51.49l-1.63,3.1c-0.02,0.04-0.02,0.08,0,0.12c0.07,0.12,0.14,0.23,0.2,0.35
			c0.05,0.08,0.17,0.08,0.21-0.01l1.61-3.06c0.02-0.03,0.02-0.08,0-0.11c-0.06-0.13-0.13-0.25-0.19-0.38
			C168.52,51.41,168.4,51.41,168.35,51.49z"/>
		<path class="st0" d="M170.64,54.97c-0.06-0.08-0.19-0.06-0.22,0.04l-0.87,3.59c-0.01,0.04,0,0.08,0.03,0.11
			c0.09,0.11,0.18,0.21,0.27,0.31c0.07,0.07,0.19,0.04,0.21-0.05l0.86-3.55c0.01-0.04,0-0.07-0.02-0.1
			C170.81,55.21,170.73,55.09,170.64,54.97z"/>
	</g>
	<path class="st0" d="M157.1,24.44"/>
	<path class="st0" d="M157.1,87.49"/>
	<rect x="147.09" y="10.22" class="st0" width="0.35" height="63.05"/>
	<path class="st0" d="M106.72,11.76c-16.72,0-30.27,13.55-30.27,30.27c0,16.72,13.55,30.27,30.27,30.27
		c16.72,0,30.27-13.55,30.27-30.27C136.99,25.31,123.44,11.76,106.72,11.76z M115.39,42.03c0,3.5-2.84,6.33-6.33,6.33
		c-3.5,0-6.34-2.83-6.34-6.33H82.54c0-14.67,11.89-26.56,26.56-26.56c14.67,0,26.56,11.89,26.56,26.56H115.39z"/>
</g>
<g>
	<g>
		<path class="st0" d="M75.1,109.74H70.9v4.22h-0.76v-9.02h5.59v0.64H70.9v3.51h4.21V109.74z"/>
		<path class="st0" d="M84.58,109.94c0,0.83-0.14,1.56-0.43,2.19s-0.7,1.11-1.23,1.45c-0.53,0.34-1.15,0.51-1.85,0.51
			c-1.05,0-1.9-0.38-2.55-1.13s-0.97-1.77-0.97-3.05v-0.93c0-0.82,0.15-1.55,0.44-2.18c0.29-0.63,0.7-1.12,1.24-1.46
			c0.53-0.34,1.15-0.51,1.84-0.51c0.69,0,1.31,0.17,1.84,0.5c0.53,0.33,0.94,0.81,1.23,1.42c0.29,0.61,0.44,1.32,0.45,2.12V109.94z
			 M83.81,108.96c0-1.09-0.25-1.94-0.74-2.55c-0.49-0.62-1.17-0.92-2.02-0.92c-0.84,0-1.51,0.31-2,0.93
			c-0.5,0.62-0.75,1.48-0.75,2.59v0.94c0,1.07,0.25,1.92,0.74,2.54s1.17,0.94,2.02,0.94c0.86,0,1.54-0.31,2.02-0.93
			c0.48-0.62,0.72-1.48,0.72-2.58V108.96z"/>
		<path class="st0" d="M90.5,110.2h-2.62v3.76h-0.77v-9.02h2.93c0.96,0,1.71,0.23,2.25,0.7c0.54,0.47,0.81,1.12,0.81,1.96
			c0,0.58-0.17,1.09-0.51,1.53s-0.79,0.75-1.36,0.92l2.26,3.84v0.08h-0.81L90.5,110.2z M87.88,109.56h2.34
			c0.64,0,1.16-0.18,1.54-0.55c0.39-0.36,0.58-0.83,0.58-1.41c0-0.64-0.2-1.13-0.61-1.48c-0.41-0.35-0.97-0.53-1.7-0.53h-2.15
			V109.56z"/>
		<path class="st0" d="M99.54,113.96v-9.02h2.67c0.97,0,1.7,0.2,2.2,0.6c0.5,0.4,0.75,0.99,0.75,1.76c0,0.47-0.13,0.87-0.38,1.22
			c-0.25,0.35-0.6,0.59-1.04,0.74c0.52,0.12,0.95,0.37,1.27,0.77s0.48,0.86,0.48,1.39c0,0.8-0.26,1.42-0.77,1.87
			s-1.23,0.67-2.15,0.67H99.54z M100.3,108.99h2.08c0.64-0.01,1.13-0.16,1.48-0.45c0.35-0.29,0.52-0.71,0.52-1.26
			c0-0.58-0.18-1.01-0.54-1.28c-0.36-0.27-0.91-0.41-1.64-0.41h-1.9V108.99z M100.3,109.63v3.69h2.29c0.65,0,1.17-0.17,1.55-0.5
			c0.38-0.33,0.57-0.79,0.57-1.38c0-0.56-0.18-1-0.55-1.32c-0.37-0.32-0.87-0.49-1.51-0.49H100.3z"/>
		<path class="st0" d="M108.88,113.96h-0.76v-9.02h0.76V113.96z"/>
		<path class="st0" d="M118.63,109.94c0,0.83-0.14,1.56-0.43,2.19s-0.7,1.11-1.23,1.45c-0.53,0.34-1.15,0.51-1.85,0.51
			c-1.05,0-1.9-0.38-2.55-1.13s-0.97-1.77-0.97-3.05v-0.93c0-0.82,0.15-1.55,0.44-2.18c0.29-0.63,0.7-1.12,1.24-1.46
			c0.53-0.34,1.15-0.51,1.84-0.51c0.69,0,1.31,0.17,1.84,0.5c0.53,0.33,0.94,0.81,1.23,1.42c0.29,0.61,0.44,1.32,0.45,2.12V109.94z
			 M117.87,108.96c0-1.09-0.25-1.94-0.74-2.55c-0.49-0.62-1.17-0.92-2.02-0.92c-0.84,0-1.51,0.31-2,0.93
			c-0.5,0.62-0.75,1.48-0.75,2.59v0.94c0,1.07,0.25,1.92,0.74,2.54s1.17,0.94,2.02,0.94c0.86,0,1.54-0.31,2.02-0.93
			c0.48-0.62,0.72-1.48,0.72-2.58V108.96z"/>
		<path class="st0" d="M127.7,112.89c-0.26,0.38-0.68,0.67-1.24,0.88c-0.56,0.21-1.2,0.32-1.89,0.32c-0.71,0-1.33-0.17-1.88-0.51
			c-0.55-0.34-0.98-0.82-1.28-1.44c-0.3-0.62-0.46-1.33-0.46-2.13v-1.14c0-1.25,0.32-2.24,0.95-2.96c0.63-0.72,1.48-1.09,2.55-1.09
			c0.93,0,1.68,0.24,2.24,0.71c0.57,0.47,0.9,1.12,1.01,1.96h-0.76c-0.11-0.66-0.38-1.17-0.81-1.51s-0.99-0.51-1.68-0.51
			c-0.84,0-1.51,0.3-2,0.9c-0.49,0.6-0.74,1.45-0.74,2.54v1.07c0,0.69,0.12,1.29,0.35,1.82c0.23,0.53,0.57,0.94,1,1.23
			c0.44,0.29,0.94,0.43,1.5,0.43c0.66,0,1.22-0.1,1.69-0.31c0.31-0.14,0.53-0.3,0.68-0.48v-2.33h-2.42v-0.64h3.18V112.89z"/>
		<path class="st0" d="M135.48,109.64h-4.22v3.68h4.85v0.64h-5.61v-9.02h5.58v0.64h-4.82v3.41h4.22V109.64z"/>
		<path class="st0" d="M145.01,109.94c0,0.83-0.14,1.56-0.43,2.19s-0.7,1.11-1.23,1.45c-0.53,0.34-1.15,0.51-1.85,0.51
			c-1.05,0-1.9-0.38-2.55-1.13s-0.97-1.77-0.97-3.05v-0.93c0-0.82,0.15-1.55,0.44-2.18c0.29-0.63,0.7-1.12,1.24-1.46
			c0.53-0.34,1.15-0.51,1.84-0.51c0.69,0,1.31,0.17,1.84,0.5c0.53,0.33,0.94,0.81,1.23,1.42c0.29,0.61,0.44,1.32,0.45,2.12V109.94z
			 M144.25,108.96c0-1.09-0.25-1.94-0.74-2.55c-0.49-0.62-1.17-0.92-2.02-0.92c-0.84,0-1.51,0.31-2,0.93
			c-0.5,0.62-0.75,1.48-0.75,2.59v0.94c0,1.07,0.25,1.92,0.74,2.54s1.17,0.94,2.02,0.94c0.86,0,1.54-0.31,2.02-0.93
			c0.48-0.62,0.72-1.48,0.72-2.58V108.96z"/>
		<path class="st0" d="M153.96,111.15c-0.1,0.95-0.44,1.68-1.02,2.18c-0.58,0.5-1.34,0.76-2.3,0.76c-0.67,0-1.26-0.17-1.78-0.5
			c-0.51-0.33-0.91-0.81-1.19-1.42s-0.42-1.31-0.43-2.1v-1.17c0-0.8,0.14-1.51,0.42-2.13c0.28-0.62,0.68-1.1,1.21-1.43
			s1.13-0.5,1.82-0.5c0.97,0,1.73,0.26,2.29,0.78s0.88,1.24,0.98,2.16h-0.77c-0.19-1.53-1.02-2.3-2.5-2.3
			c-0.82,0-1.47,0.31-1.95,0.92c-0.49,0.61-0.73,1.46-0.73,2.54v1.1c0,1.04,0.24,1.87,0.71,2.49c0.47,0.62,1.11,0.93,1.92,0.93
			c0.8,0,1.4-0.19,1.8-0.57c0.4-0.38,0.65-0.96,0.75-1.72H153.96z"/>
		<path class="st0" d="M163.13,113.96h-0.77v-4.33h-5.16v4.33h-0.76v-9.02h0.76v4.05h5.16v-4.05h0.77V113.96z"/>
		<path class="st0" d="M171.04,109.64h-4.22v3.68h4.85v0.64h-5.61v-9.02h5.58v0.64h-4.82v3.41h4.22V109.64z"/>
		<path class="st0" d="M174.92,104.94l3.33,7.96l3.34-7.96h1.02v9.02h-0.76v-3.93l0.06-4.03l-3.36,7.96h-0.59l-3.35-7.92l0.06,3.97
			v3.95h-0.76v-9.02H174.92z"/>
		<path class="st0" d="M186.45,113.96h-0.76v-9.02h0.76V113.96z"/>
		<path class="st0" d="M194.64,111.75c0-0.5-0.18-0.89-0.53-1.19c-0.35-0.29-0.99-0.57-1.93-0.83c-0.93-0.26-1.62-0.55-2.04-0.86
			c-0.61-0.44-0.92-1.01-0.92-1.72c0-0.69,0.28-1.25,0.85-1.68c0.57-0.43,1.29-0.65,2.18-0.65c0.6,0,1.13,0.12,1.61,0.35
			c0.47,0.23,0.84,0.55,1.1,0.97c0.26,0.41,0.39,0.87,0.39,1.38h-0.77c0-0.62-0.21-1.11-0.63-1.49c-0.42-0.38-0.99-0.56-1.7-0.56
			c-0.69,0-1.24,0.15-1.65,0.46s-0.61,0.71-0.61,1.21c0,0.46,0.18,0.83,0.55,1.12c0.37,0.29,0.96,0.55,1.77,0.77
			c0.81,0.22,1.42,0.45,1.84,0.69c0.42,0.24,0.73,0.52,0.94,0.85c0.21,0.33,0.32,0.72,0.32,1.17c0,0.71-0.28,1.28-0.85,1.71
			s-1.32,0.64-2.25,0.64c-0.64,0-1.22-0.11-1.75-0.34c-0.53-0.23-0.93-0.54-1.21-0.95c-0.27-0.41-0.41-0.88-0.41-1.41h0.76
			c0,0.64,0.24,1.14,0.71,1.51c0.48,0.37,1.11,0.55,1.9,0.55c0.7,0,1.27-0.16,1.69-0.46C194.43,112.67,194.64,112.26,194.64,111.75z
			"/>
		<path class="st0" d="M203.81,105.59h-3.09v8.38h-0.76v-8.38h-3.09v-0.64h6.94V105.59z"/>
		<path class="st0" d="M209.27,110.2h-2.62v3.76h-0.77v-9.02h2.93c0.96,0,1.71,0.23,2.25,0.7c0.54,0.47,0.81,1.12,0.81,1.96
			c0,0.58-0.17,1.09-0.51,1.53s-0.79,0.75-1.36,0.92l2.26,3.84v0.08h-0.81L209.27,110.2z M206.65,109.56h2.34
			c0.64,0,1.16-0.18,1.54-0.55c0.39-0.36,0.58-0.83,0.58-1.41c0-0.64-0.2-1.13-0.61-1.48c-0.41-0.35-0.97-0.53-1.7-0.53h-2.15
			V109.56z"/>
		<path class="st0" d="M216.94,109.86l2.76-4.92h0.88l-3.26,5.63v3.4h-0.76v-3.4l-3.25-5.63h0.91L216.94,109.86z"/>
	</g>
	<g>
		<polygon class="st0" points="17.67,97.93 17.62,97.93 14.6,89.16 11.46,89.16 11.46,101.07 13.85,101.07 13.85,92.92 13.9,92.91 
			16.85,101.07 18.46,101.07 21.41,92.93 21.46,92.94 21.46,101.07 23.85,101.07 23.85,89.16 20.73,89.16 		"/>
		<path class="st0" d="M33.04,89.16h-2.45l-4.02,11.91h2.49l0.8-2.57h3.86l0.81,2.57h2.49L33.04,89.16z M30.46,96.63l1.32-4.2h0.05
			l1.32,4.2H30.46z"/>
		<polygon class="st0" points="48.78,101.07 45.04,95.06 48.57,89.16 45.79,89.16 43.56,93.38 41.36,89.16 38.6,89.16 42.13,95.06 
			38.51,101.07 41.29,101.07 43.59,96.77 45.89,101.07 		"/>
		<path class="st0" d="M64.21,90.21c-0.79-0.7-1.86-1.05-3.23-1.05h-4.56v11.91h2.39v-4.32h2.17c1.37,0,2.45-0.35,3.23-1.04
			c0.79-0.69,1.18-1.61,1.18-2.75S65,90.9,64.21,90.21z M62.49,94.37c-0.34,0.36-0.85,0.54-1.51,0.54h-2.17V91h2.17
			c0.67,0,1.18,0.19,1.52,0.56c0.34,0.37,0.51,0.85,0.51,1.42C63.01,93.54,62.84,94,62.49,94.37z"/>
		<polygon class="st0" points="74.7,99.24 70.32,99.24 70.32,89.16 67.93,89.16 67.93,101.07 74.7,101.07 		"/>
		<path class="st0" d="M80.21,89.16l-4.02,11.91h2.49l0.8-2.57h3.86l0.81,2.57h2.49l-4-11.91H80.21z M80.08,96.63l1.32-4.2h0.05
			l1.32,4.2H80.08z"/>
		<polygon class="st0" points="91.53,93.04 91.58,93.04 96.38,101.07 98.77,101.07 98.77,89.16 96.38,89.16 96.38,97.17 
			96.33,97.18 91.53,89.16 89.14,89.16 89.14,101.07 91.53,101.07 		"/>
		<path class="st0" d="M110.09,90.05c-0.82-0.71-1.95-1.06-3.4-1.06c-1.39,0-2.51,0.46-3.37,1.39c-0.86,0.92-1.28,2.11-1.28,3.56
			v2.36c0,1.46,0.44,2.64,1.32,3.56s2.03,1.38,3.46,1.38c1.4,0,2.5-0.36,3.3-1.08c0.8-0.72,1.18-1.71,1.16-2.99l-0.02-0.05h-2.31
			c0,0.77-0.18,1.35-0.53,1.72c-0.35,0.37-0.88,0.56-1.6,0.56c-0.75,0-1.34-0.29-1.76-0.87c-0.42-0.58-0.63-1.32-0.63-2.24v-2.38
			c0-0.91,0.2-1.65,0.6-2.23c0.4-0.58,0.96-0.86,1.67-0.86c0.77,0,1.34,0.19,1.71,0.56c0.37,0.37,0.55,0.94,0.55,1.71h2.32
			l0.02-0.05C111.3,91.76,110.91,90.76,110.09,90.05z"/>
		<polygon class="st0" points="123.76,89.16 120.81,89.16 117.55,94.03 116.88,94.03 116.88,89.16 114.49,89.16 114.49,101.07 
			116.88,101.07 116.88,96.09 117.75,96.09 121.04,101.07 124.08,101.07 119.64,94.7 		"/>
		<path class="st0" d="M134.02,101.09h-2.45V89.21h2.45V101.09z"/>
		<path class="st0" d="M147.2,101.09h-2.45l-4.76-7.82v7.82h-2.45V89.21h2.45l4.77,7.83v-7.83h2.44V101.09z"/>
		<path class="st0" d="M156.67,97.97c0-0.46-0.16-0.82-0.49-1.06c-0.33-0.25-0.91-0.51-1.76-0.78c-0.85-0.27-1.52-0.54-2.01-0.81
			c-1.35-0.73-2.02-1.71-2.02-2.95c0-0.64,0.18-1.21,0.54-1.72c0.36-0.5,0.88-0.9,1.56-1.18c0.68-0.28,1.44-0.42,2.28-0.42
			c0.85,0,1.6,0.15,2.27,0.46c0.66,0.31,1.18,0.74,1.55,1.3c0.37,0.56,0.55,1.2,0.55,1.91h-2.45c0-0.54-0.17-0.97-0.51-1.27
			S155.34,91,154.72,91c-0.6,0-1.06,0.13-1.39,0.38s-0.5,0.59-0.5,1c0,0.39,0.19,0.71,0.58,0.97c0.39,0.26,0.96,0.5,1.72,0.73
			c1.39,0.42,2.41,0.94,3.04,1.56c0.64,0.62,0.95,1.39,0.95,2.32c0,1.03-0.39,1.83-1.17,2.42c-0.78,0.58-1.83,0.88-3.14,0.88
			c-0.91,0-1.75-0.17-2.5-0.5c-0.75-0.33-1.32-0.79-1.72-1.37s-0.59-1.26-0.59-2.02h2.46c0,1.31,0.78,1.97,2.35,1.97
			c0.58,0,1.04-0.12,1.36-0.35S156.67,98.4,156.67,97.97z"/>
		<path class="st0" d="M170.39,91.19h-3.64v9.9h-2.45v-9.9h-3.59v-1.98h9.67V91.19z"/>
		<path class="st0" d="M175.22,101.09h-2.45V89.21h2.45V101.09z"/>
		<path class="st0" d="M187.03,91.19h-3.64v9.9h-2.45v-9.9h-3.59v-1.98h9.67V91.19z"/>
		<path class="st0" d="M198.25,89.21v7.82c0,1.3-0.41,2.33-1.22,3.08c-0.81,0.76-1.92,1.13-3.33,1.13c-1.39,0-2.49-0.37-3.3-1.1
			c-0.82-0.73-1.23-1.74-1.25-3.03v-7.91h2.45v7.84c0,0.78,0.19,1.34,0.56,1.7c0.37,0.36,0.89,0.53,1.55,0.53
			c1.38,0,2.08-0.72,2.1-2.17v-7.91H198.25z"/>
		<path class="st0" d="M210.03,91.19h-3.64v9.9h-2.45v-9.9h-3.59v-1.98h9.67V91.19z"/>
		<path class="st0" d="M219.41,95.94h-4.7v3.18h5.51v1.97h-7.96V89.21h7.95v1.98h-5.5v2.83h4.7V95.94z"/>
	</g>
</g>
<g>
</g>
<g>
</g>
<g>
</g>
<g>
</g>
<g>
</g>
<g>
</g>
</svg>
